<?xml version="1.0" encoding="utf-8"?><!-- Uploaded to: SVG Repo, www.svgrepo.com, Generator: SVG Repo Mixer Tools -->
<svg fill="#000000" width="800px" height="800px" viewBox="0 0 24 24" id="seismometer-square" data-name="Flat Color" xmlns="http://www.w3.org/2000/svg" class="icon flat-color"><rect id="primary" x="2" y="2" width="20" height="20" rx="2" style="fill: rgb(0, 0, 0);"></rect><path id="secondary" d="M13,16h-.13a1,1,0,0,1-.82-.67l-1.13-3.41-1,2.46A1,1,0,0,1,9,15a.94.94,0,0,1-.93-.55L7.38,13H6a1,1,0,0,1,0-2H8a1,1,0,0,1,.89.55h0l1.17-2.93A1,1,0,0,1,11,8a1,1,0,0,1,.92.68l1.35,4.06.87-1.29A1,1,0,0,1,15,11h3a1,1,0,0,1,0,2H15.54l-1.71,2.55A1,1,0,0,1,13,16Z" style="fill: rgb(44, 169, 188);"></path></svg>